A Case of Coincidence,
After four attractive women are found strangled in and around the local river, the free-spirited wife of a London doctor is killed while on an extramarital assignation.

Heartstones,
After the death of his wife seems Luke not really mourning. His daughters Elvira and Spinny do have great difficulty in losing their mother. Elvira suspects her father of being behind their mother's death...

The Secret House of Death,
A lonely divorcée becomes involved with a neighbor whose wife and her lover carried out a suicide pact.

General:

Complete name                    : Ruth Rendell Mysteries 2\A Case of Coincidence\Part One.avi
Format                           : AVI
Format/Info                      : Audio Video Interleave
File size                        : 603 MiB
Duration                         : 50mn 40s
Overall bit rate                 : 1 663 Kbps

Video:

Format                           : MPEG-4 Visual
Format profile                   : Simple@L3
Format settings, BVOP            : No
Format settings, QPel            : No
Format settings, GMC             : No warppoints
Format settings, Matrix          : Default (H.263)
Codec ID                         : XVID
Codec ID/Hint                    : XviD
Duration                         : 50mn 40s
Bit rate                         : 1 428 Kbps
Width                            : 640 pixels
Height                           : 480 pixels
Display aspect ratio             : 4:3
Frame rate                       : 25.000 fps
Color space                      : YUV
Chroma subsampling               : 4:2:0
Bit depth                        : 8 bits
Scan type                        : Progressive
Bits/(Pixel*Frame)               : 0.186
Stream size                      : 517 MiB (86%)
Writing library                  : XviD 1.1.2 (UTC 2006-11-01)

Audio:

Format                           : AC-3
Format/Info                      : Audio Coding 3
Mode extension                   : CM (complete main)
Codec ID                         : 2000
Duration                         : 50mn 40s
Bit rate mode                    : Constant
Bit rate                         : 224 Kbps
Channel(s)                       : 2 channels
Channel positions                : Front: L R
Sampling rate                    : 48.0 KHz
Bit depth                        : 16 bits
Stream size                      : 81.2 MiB (13%)
Alignment                        : Aligned on interleaves
Interleave, duration             : 32 ms (0.80 video frame)
